PathFileType	4	(X/Y/Z)	C:/Users/opensim2020/Desktop/walking_exp_matlab/subject03_walking04_straight_03.trc	
DataRate	CameraRate	NumFrames	NumMarkers	Units	OrigDataRate	OrigDataStartFrame	OrigNumFrames	
100.00	100.00	5	51	mm	100.00	2373	256	
Frame#	Time	LFHD			RFHD			LBHD			RBHD			C7			T10			CLAV			STRN			RBAK			LSHO			LUPA			LELB			LFRM			LWRA			LWRB			LFIN			RSHO			RUPA			RELB			RFRM			RWRA			RWRB			RFIN			LASI			RASI			LPSI			RPSI			LTHI			LKNE			LTIB			LANK			LHEE			LTOE			RTHI			RKNE			RTIB			RANK			RHEE			RTOE			*39			*40			*41			*42			*43			*44			*45			*46			*47			*48			*49			*50			
		X1	Y1	Z1	X2	Y2	Z2	X3	Y3	Z3	X4	Y4	Z4	X5	Y5	Z5	X6	Y6	Z6	X7	Y7	Z7	X8	Y8	Z8	X9	Y9	Z9	X10	Y10	Z10	X11	Y11	Z11	X12	Y12	Z12	X13	Y13	Z13	X14	Y14	Z14	X15	Y15	Z15	X16	Y16	Z16	X17	Y17	Z17	X18	Y18	Z18	X19	Y19	Z19	X20	Y20	Z20	X21	Y21	Z21	X22	Y22	Z22	X23	Y23	Z23	X24	Y24	Z24	X25	Y25	Z25	X26	Y26	Z26	X27	Y27	Z27	X28	Y28	Z28	X29	Y29	Z29	X30	Y30	Z30	X31	Y31	Z31	X32	Y32	Z32	X33	Y33	Z33	X34	Y34	Z34	X35	Y35	Z35	X36	Y36	Z36	X37	Y37	Z37	X38	Y38	Z38	X39	Y39	Z39	X40	Y40	Z40	X41	Y41	Z41	X42	Y42	Z42	X43	Y43	Z43	X44	Y44	Z44	X45	Y45	Z45	X46	Y46	Z46	X47	Y47	Z47	X48	Y48	Z48	X49	Y49	Z49	X50	Y50	Z50	X51	Y51	Z51	

129	1.280	-1246.62146	1.55822	1608.05444	-1115.57324	-22.98029	1612.43408	-1264.79614	-121.84084	1554.97620	-1135.18103	-141.05945	1559.33398	-1209.54688	-156.84904	1403.42773	-1203.50940	-195.91350	1090.98462	-1192.94788	-37.58073	1323.66382	-1197.22449	4.24130	1158.47705	-1120.46069	-224.09987	1229.39270	-1351.15515	-61.80935	1363.19312	-1427.43250	-22.04108	1178.05847	-1439.85461	25.83080	1066.26794	-1425.55408	110.36570	969.81549	-1381.11401	183.68860	883.58948	-1432.84985	168.29745	871.77747	-1414.90393	228.15289	816.62579	-1039.27307	-101.65179	1348.35754	-968.18787	-130.97774	1127.23242	-951.73779	-128.46674	1014.76587	-946.29895	-125.39205	877.89978	-975.42200	-96.75089	779.48578	-937.41357	-136.80643	778.13501	-943.57068	-120.56779	704.88812	-1317.05457	-28.89802	926.06427	-1077.60522	-29.56432	924.94214	-1264.75146	-190.05519	951.52002	-1115.82690	-189.85550	951.17322	-1344.74500	-128.27560	631.40118	-1302.82556	-165.42178	457.88614	-1300.87708	-260.05972	283.47406	-1254.36218	-327.07578	82.80308	-1218.13232	-373.23395	56.34011	-1229.51233	-181.77669	27.19463	-1029.10706	-26.67969	630.36877	-1069.71008	53.58076	469.00546	-1066.73486	68.33547	284.35895	-1109.20752	121.66288	73.30363	-1167.79578	92.78975	35.42487	-1114.30676	267.23981	60.93363																																				 
130	1.290	-1245.70007	11.36076	1607.11780	-1114.66882	-13.09106	1611.21289	-1263.96277	-112.13409	1554.29016	-1134.27319	-131.34212	1558.39990	-1208.70447	-147.21251	1402.29041	-1202.26416	-185.99728	1089.92371	-1192.51050	-27.77534	1322.66089	-1196.91003	14.10536	1157.47180	-1119.60852	-214.09517	1228.17041	-1350.64673	-52.63668	1362.05713	-1426.93909	-12.86169	1176.99158	-1439.51709	35.66904	1065.58057	-1424.84558	121.06394	970.11951	-1379.87122	195.30568	884.71393	-1431.68616	180.03995	872.57703	-1413.54907	240.63525	818.34772	-1038.67078	-91.63136	1347.20544	-967.72742	-121.22226	1126.05273	-951.26996	-119.19881	1013.56750	-945.83173	-117.17764	876.65131	-974.97955	-89.74083	778.33472	-936.90558	-129.17766	776.96881	-943.14240	-113.57210	703.58734	-1316.84290	-19.67882	925.08411	-1077.29565	-19.25011	923.58899	-1263.46277	-180.52876	950.60864	-1114.35974	-179.94638	950.24713	-1344.64624	-120.82706	631.03174	-1303.11365	-159.16537	457.49460	-1301.10913	-256.07858	284.25885	-1254.81995	-326.08719	84.51536	-1218.78589	-372.38226	58.45567	-1229.68237	-181.46153	27.40191	-1029.17517	-18.46075	628.67926	-1069.94873	61.20257	467.03345	-1066.70764	80.10043	283.65344	-1109.03113	139.05775	73.82039	-1167.53662	111.48846	35.56179	-1113.99756	285.68121	64.05750																																				 
131	1.300	-1244.77551	21.32689	1606.23743	-1113.60535	-3.14728	1610.13354	-1263.09045	-102.34082	1553.79297	-1133.38721	-121.55745	1557.62512	-1207.84204	-137.41890	1401.28687	-1200.99036	-175.90535	1088.86328	-1192.00366	-17.86228	1321.70190	-1196.60767	24.17459	1156.56323	-1118.75293	-203.83879	1226.96716	-1350.12097	-43.38360	1361.01538	-1426.37134	-3.76536	1175.90979	-1438.67419	45.20057	1064.62488	-1424.06885	131.41414	970.13458	-1378.83386	206.54639	885.72461	-1430.47925	191.27039	873.16602	-1412.28711	252.51857	819.75287	-1037.87732	-81.50174	1346.09998	-967.21997	-111.21829	1124.94775	-950.82458	-109.67039	1012.38959	-945.37958	-108.48568	875.49255	-974.52838	-83.30531	776.35583	-936.41321	-121.19398	775.88251	-942.75494	-106.13899	702.31854	-1316.47803	-10.24808	924.13684	-1076.90247	-8.77217	922.41010	-1262.15112	-170.86440	949.78223	-1113.00220	-169.55853	949.36835	-1344.51172	-113.14738	630.70660	-1303.39160	-152.57779	457.23865	-1301.42371	-251.94357	285.12671	-1255.31714	-324.90338	86.48080	-1219.47839	-371.54803	61.09266	-1229.60413	-181.42726	27.12211	-1029.66797	-10.02964	627.32513	-1070.11975	69.14191	465.37872	-1066.57520	90.91905	283.02097	-1108.74072	154.03172	73.96458	-1167.34277	127.19576	35.53867	-1114.35217	301.54868	66.12273	-1209.90698	-74.61235	1664.31628																																	 
132	1.310	-1243.76685	31.28802	1605.47583	-1112.65222	6.64664	1609.11194	-1262.16992	-92.57264	1553.39539	-1132.47498	-111.57240	1557.11804	-1206.92188	-127.46804	1400.32800	-1199.79810	-165.72626	1087.94312	-1191.33508	-7.89756	1320.83044	-1196.13367	34.28345	1155.77087	-1117.93469	-193.56908	1225.82556	-1349.56958	-33.94373	1360.11316	-1425.76721	5.25408	1174.89172	-1438.20300	54.58587	1063.77332	-1423.03455	141.34856	969.94244	-1377.69543	217.09851	886.16345	-1429.38000	202.06552	873.43512	-1411.08765	263.78171	820.81952	-1037.18872	-71.23329	1345.12720	-966.68079	-101.03024	1123.92261	-950.40912	-99.78488	1011.30841	-944.91400	-99.52691	874.39716	-973.86139	-74.59585	775.24329	-935.82251	-112.88246	774.85492	-942.45984	-98.52371	701.04681	-1316.14038	-0.71776	923.26654	-1076.52576	1.80650	921.46069	-1260.83081	-160.98241	948.99371	-1111.70313	-159.14890	948.78430	-1344.33765	-105.08266	630.43311	-1303.66382	-145.66846	456.94388	-1301.76306	-247.59511	286.14075	-1255.91406	-323.62704	88.55649	-1220.03235	-370.84442	64.06906	-1229.70471	-181.26366	27.12384	-1030.40051	-1.20602	626.30670	-1070.23169	77.60817	464.10535	-1066.49426	100.80173	282.26587	-1108.51465	166.38660	73.59583	-1166.81909	139.69429	34.99503	-1115.50720	314.39719	66.85768																																				 
133	1.320	-1242.78589	41.28995	1604.80847	-1111.62964	16.84846	1608.37061	-1261.23584	-82.70710	1553.18506	-1131.50000	-101.70668	1556.69360	-1205.96484	-117.49849	1399.51904	-1198.72400	-155.29121	1087.07666	-1190.71680	2.27199	1320.17249	-1195.67725	44.64869	1155.16809	-1117.05444	-183.14619	1224.80908	-1349.00391	-24.37716	1359.38049	-1425.19165	14.27037	1173.97375	-1437.23083	63.70171	1062.87537	-1422.37134	151.04523	969.67438	-1376.74243	227.42036	886.67694	-1428.28406	212.20064	873.53180	-1409.97461	274.50729	821.56830	-1036.23645	-60.95308	1344.18311	-966.15710	-90.50449	1123.00574	-950.03748	-89.53992	1010.35046	-944.43378	-90.13611	873.37775	-973.53040	-66.01901	774.08783	-935.24396	-104.11419	773.97803	-941.97583	-90.36078	700.07587	-1315.39014	8.96721	922.44507	-1076.13391	12.53633	920.72479	-1259.55701	-150.96393	948.28851	-1110.46423	-148.51610	948.29242	-1344.12134	-96.74664	630.12750	-1303.99304	-138.38185	456.79074	-1302.17737	-242.95427	287.24234	-1256.34338	-322.07913	90.83215	-1220.59167	-369.93887	67.24740	-1229.76611	-181.14572	27.02191	-1030.93225	8.33501	625.61469	-1070.33984	86.60711	463.30722	-1066.43030	110.01909	281.33118	-1108.37646	176.02451	72.63061	-1166.23853	148.97717	33.77323	-1117.43958	324.28052	66.22264																																				 
